# File created by Blade
# Date/Time:  Wed Jan 21 14:58:10 2015
# Frame Rate: 120.000 fps
#------------------------------------------------------
:FULLY-SPECIFIED
:DEGREES
223
root 17.225161 35.086830 -23.328767 -159.005658 -62.617620 -194.844787
Spine -27.731793 44.094545 -22.343419
Head 13.829974 23.668075 2.900616
LeftShoulder -15.449921 -27.755265 23.601120
LeftArm -15.381065 -0.715670 -7.510913
LeftForeArm 10.983119 0.000000 -6.253344
LeftHand -8.297671 -0.000000 -9.070741
LeftHandThumb1 -26.253704 0.000000 33.147579
RightShoulder 2.522171 3.692604 -14.854426
RightArm 28.234278 20.500620 22.260915
RightForeArm -35.405465 0.000000 7.346545
RightHand -5.413607 -0.000000 9.992162
RightHandThumb1 -24.326973 -0.000000 -32.862282
LeftUpLeg -15.648903 -31.709566 4.820930
LeftLeg -2.046029 -0.000000 0.000000
LeftFoot -10.205374 8.923584 -13.434018
LeftToeBase 30.291513 -0.000000 -0.000000
RightUpLeg 8.819518 -34.928894 -2.714621
RightLeg -3.439985 -0.000000 0.000000
RightFoot -37.982115 -43.511934 31.744332
RightToeBase 20.013192 -0.000000 -0.000000
224
root 17.215520 35.085411 -23.329424 -158.896240 -62.744751 -194.981115
Spine -27.719859 44.302730 -22.386263
Head 13.886024 23.771594 2.948725
LeftShoulder -15.470640 -27.626817 23.581870
LeftArm -15.487643 -0.693536 -7.578578
LeftForeArm 10.857981 -0.000000 -6.257836
LeftHand -8.303960 -0.000000 -8.956592
LeftHandThumb1 -26.253704 0.000000 33.147579
RightShoulder 2.675634 3.756732 -14.871724
RightArm 28.576137 20.537640 22.643419
RightForeArm -35.490152 -0.000000 7.591475
RightHand -5.452812 -0.000000 10.024348
RightHandThumb1 -24.326973 -0.000000 -32.862282
LeftUpLeg -15.552619 -31.751527 4.775907
LeftLeg -2.208377 -0.000000 0.000000
LeftFoot -10.089266 8.832521 -13.456811
LeftToeBase 30.325272 -0.000000 -0.000000
RightUpLeg 8.843299 -34.919343 -2.773316
RightLeg -3.342787 -0.000000 0.000000
RightFoot -38.078845 -43.409144 31.825398
RightToeBase 19.974392 -0.000000 -0.000000
225
root 17.205745 35.083945 -23.329111 -158.785138 -62.868071 -195.112299
Spine -27.748320 44.518409 -22.451693
Head 13.990528 23.799313 3.026737
LeftShoulder -15.450607 -27.579026 23.546911
LeftArm -15.679728 -0.362350 -7.656712
LeftForeArm 10.528522 -0.000000 -6.104671
LeftHand -8.385644 -0.000000 -8.977575
LeftHandThumb1 -26.253704 0.000000 33.147579
RightShoulder 2.808780 3.573579 -14.856407
RightArm 29.168360 20.662401 22.949706
RightForeArm -35.530796 -0.000000 7.468149
RightHand -5.384233 -0.000000 9.933991
RightHandThumb1 -24.326973 -0.000000 -32.862282
LeftUpLeg -15.480785 -31.777951 4.730351
LeftLeg -2.335138 -0.000000 0.000000
LeftFoot -9.980922 8.732420 -13.461957
LeftToeBase 30.322305 -0.000000 -0.000000
RightUpLeg 8.857762 -34.872601 -2.822637
RightLeg -3.227113 -0.000000 0.000000
RightFoot -38.103157 -43.402110 31.835660
RightToeBase 19.900306 -0.000000 -0.000000
226
root 17.194524 35.081578 -23.325097 -158.609747 -62.981516 -195.304000
Spine -27.788742 44.727144 -22.555427
Head 14.058912 23.809924 3.074515
LeftShoulder -15.459757 -27.462515 23.497270
LeftArm -15.786060 0.002688 -7.780736
LeftForeArm 9.979250 -0.000000 -6.027953
LeftHand -8.361841 -0.000000 -8.816298
LeftHandThumb1 -26.253704 0.000000 33.147579
RightShoulder 2.978417 3.608185 -14.868992
RightArm 29.517730 20.545008 23.201737
RightForeArm -35.542046 0.000000 7.540591
RightHand -5.429946 -0.000000 10.018719
RightHandThumb1 -24.326973 -0.000000 -32.862282
LeftUpLeg -15.446956 -31.820918 4.659864
LeftLeg -2.413556 -0.000000 0.000000
LeftFoot -9.893553 8.639613 -13.472718
LeftToeBase 30.344864 -0.000000 -0.000000
RightUpLeg 8.849157 -34.813656 -2.890642
RightLeg -3.116882 -0.000000 0.000000
RightFoot -38.182110 -43.444217 31.821623
RightToeBase 19.921249 -0.000000 -0.000000
227
root 17.181166 35.079519 -23.321738 -158.436318 -63.112435 -195.496481
Spine -27.859006 44.973546 -22.676944
Head 14.160679 23.744615 3.120330
LeftShoulder -15.434752 -27.361052 23.422254
LeftArm -15.791586 -0.128579 -7.751199
LeftForeArm 9.830542 0.000000 -6.077360
LeftHand -8.245257 -0.000000 -8.609739
LeftHandThumb1 -26.253704 0.000000 33.147579
RightShoulder 3.025271 3.677731 -14.863813
RightArm 29.964053 20.287621 23.411087
RightForeArm -35.509513 -0.000000 7.528575
RightHand -5.401166 -0.000000 10.061830
RightHandThumb1 -24.326973 -0.000000 -32.862282
LeftUpLeg -15.428831 -31.895473 4.599368
LeftLeg -2.462196 -0.000000 0.000000
LeftFoot -9.816500 8.562221 -13.495906
LeftToeBase 30.274257 -0.000000 -0.000000
RightUpLeg 8.891267 -34.868377 -2.975746
RightLeg -3.060623 -0.000000 0.000000
RightFoot -38.165753 -43.382580 31.774092
RightToeBase 19.875265 -0.000000 -0.000000
228
root 17.169592 35.077061 -23.319098 -158.173805 -63.250911 -195.756442
Spine -27.954786 45.109899 -22.839839
Head 14.278265 23.726261 3.223501
LeftShoulder -15.481051 -27.255621 23.443533
LeftArm -15.854200 -0.052527 -7.795897
LeftForeArm 9.426820 -0.000000 -6.033273
LeftHand -8.237579 -0.000000 -8.504802
LeftHandThumb1 -26.253704 0.000000 33.147579
RightShoulder 3.160730 3.684385 -14.831183
RightArm 30.448288 20.129474 23.653628
RightForeArm -35.527601 -0.000000 7.491242
RightHand -5.437661 -0.000000 10.067021
RightHandThumb1 -24.326973 -0.000000 -32.862282
LeftUpLeg -15.469056 -31.977776 4.536443
LeftLeg -2.474330 -0.000000 0.000000
LeftFoot -9.746051 8.473527 -13.533405
LeftToeBase 30.313443 -0.000000 -0.000000
RightUpLeg 8.898445 -34.937802 -3.054593
RightLeg -3.029954 -0.000000 0.000000
RightFoot -38.231737 -43.389553 31.776680
RightToeBase 19.938594 -0.000000 -0.000000
229
root 17.156115 35.074469 -23.318075 -157.943324 -63.420394 -196.004152
Spine -28.023323 45.245045 -22.951698
Head 14.446431 23.709378 3.337045
LeftShoulder -15.463706 -27.167929 23.386894
LeftArm -15.921472 0.009735 -7.766052
LeftForeArm 9.051472 0.000000 -6.010192
LeftHand -8.223851 0.000000 -8.402536
LeftHandThumb1 -26.253704 0.000000 33.147579
RightShoulder 3.324684 3.697680 -14.832239
RightArm 30.827193 19.957036 23.884803
RightForeArm -35.483899 -0.000000 7.519658
RightHand -5.543710 -0.000000 10.128504
RightHandThumb1 -24.326973 -0.000000 -32.862282
LeftUpLeg -15.499620 -32.070990 4.474247
LeftLeg -2.450663 -0.000000 0.000000
LeftFoot -9.706467 8.359540 -13.538423
LeftToeBase 30.339354 -0.000000 -0.000000
RightUpLeg 8.945355 -34.990655 -3.123412
RightLeg -3.020283 -0.000000 0.000000
RightFoot -38.309282 -43.430128 31.839084
RightToeBase 19.922158 -0.000000 -0.000000
